<svg xmlns="http://www.w3.org/2000/svg" width="187.722" height="74" viewBox="0 0 187.722 74">
  <g id="Logo" transform="translate(-371.746 -522.399)">
    <path id="Caminho_3" data-name="Caminho 3" d="M427.337,522.4H379.158a7.412,7.412,0,0,0-7.412,7.412v40.025a7.412,7.412,0,0,0,7.412,7.412h48.179a7.412,7.412,0,0,0,7.412-7.412V529.811A7.412,7.412,0,0,0,427.337,522.4Zm-45.955,7.412h43.731a2.224,2.224,0,0,1,2.224,2.224V543.38c-.052,0-.1-.014-.154-.014H416.166a7.412,7.412,0,0,0-7.412,7.412v18.976c0,.028.007.054.007.082H397.67c0-.056.018-.11.018-.167v-19.1a7.412,7.412,0,0,0-7.412-7.412H379.158V532.035A2.223,2.223,0,0,1,381.382,529.811Zm-2.224,19.262c.034,0,.067.01.1.01h10.276a2.223,2.223,0,0,1,2.224,2.224v18.235c0,.1.018.2.027.295H379.158Zm35.526,20.763V551.519a2.224,2.224,0,0,1,2.224-2.224h10.4l.027,0v20.544Z" transform="translate(0 0)" fill="#fccd2a"/>
    <g id="Grupo_79" data-name="Grupo 79" transform="translate(445.16 524.188)">
      <path id="Caminho_4" data-name="Caminho 4" d="M535.407,526.388h15.664v4.232h-5.5v49.125h-4.667V530.62h-5.5Z" transform="translate(-535.407 -526.388)" fill="#fff"/>
      <path id="Caminho_5" data-name="Caminho 5" d="M591.745,526.388h4.449v18.449a6.381,6.381,0,0,1,2.3-2.37,6.222,6.222,0,0,1,3.2-.814,4.328,4.328,0,0,1,4,1.9q1.175,1.9,1.175,6.638v29.555h-4.449V551.131a9.8,9.8,0,0,0-.705-4.431,2.9,2.9,0,0,0-4.794.036,9.6,9.6,0,0,0-.724,4.4v28.615h-4.449Z" transform="translate(-566.473 -526.388)" fill="#fff"/>
      <path id="Caminho_6" data-name="Caminho 6" d="M667.8,571.019v11.034H657.274v7.85a10.589,10.589,0,0,0,.651,4.522,2.407,2.407,0,0,0,2.315,1.194,2.325,2.325,0,0,0,2.242-1.23,10.621,10.621,0,0,0,.651-4.486v-4.124H667.8v3.038q0,6.15-1.664,8.375t-5.9,2.225q-4.2,0-5.878-2.261t-1.682-8.411V571.019q0-6.186,1.646-8.392t5.914-2.207q4.2,0,5.878,2.261T667.8,571.019Zm-4.667-1.121a10.468,10.468,0,0,0-.651-4.485,2.34,2.34,0,0,0-2.242-1.194,2.381,2.381,0,0,0-2.3,1.266,10.265,10.265,0,0,0-.669,4.413v8.393h5.86Z" transform="translate(-600.074 -545.154)" fill="#fff"/>
      <path id="Caminho_7" data-name="Caminho 7" d="M724.068,560.492v4.522h-.759q-2.858,0-4.052,1.429t-1.194,4.937v27.132h-4.449V561.324h4.161l.289,2.279a7.049,7.049,0,0,1,2.3-2.352,5.538,5.538,0,0,1,2.949-.832,3.011,3.011,0,0,1,.362.036A2.9,2.9,0,0,0,724.068,560.492Z" transform="translate(-633.675 -545.154)" fill="#fff"/>
      <path id="Caminho_8" data-name="Caminho 8" d="M770.234,570.006v28.506h-4.16l-.29-2.279a6.383,6.383,0,0,1-2.3,2.369,6.225,6.225,0,0,1-3.2.814,4.327,4.327,0,0,1-4-1.9q-1.176-1.9-1.176-6.639v-7.415q0-4.377,2.37-6.222t8.3-2.062V569.9a10.719,10.719,0,0,0-.633-4.522,2.351,2.351,0,0,0-2.261-1.158,2.422,2.422,0,0,0-2.225,1.068,7.32,7.32,0,0,0-.669,3.671v2.062h-4.449v-1.013q0-5.57,1.628-7.578t5.788-2.008q4.051,0,5.661,2.026T770.234,570.006Zm-4.486,8.791q-3.472.145-4.72,1.23t-1.248,3.906V589.9a10.582,10.582,0,0,0,.651,4.522,2.406,2.406,0,0,0,2.315,1.194,2.452,2.452,0,0,0,2.333-1.284,9.932,9.932,0,0,0,.705-4.431Z" transform="translate(-656.559 -545.154)" fill="#fff"/>
    </g>
    <g id="Grupo_80" data-name="Grupo 80" transform="translate(373.378 583.872)">
      <path id="Caminho_9" data-name="Caminho 9" d="M378.807,672.661a1.122,1.122,0,0,0-.957-.717.852.852,0,0,0-.867.777c0,.643.807.882,1.629,1.226a2.14,2.14,0,0,1,1.63,2.018,2.3,2.3,0,0,1-2.377,2.287,2.526,2.526,0,0,1-2.482-1.779l1.061-.448c.3.658.643,1.121,1.435,1.121a1.069,1.069,0,0,0,1.136-1.076c0-1.57-3.169-1.032-3.169-3.244a2,2,0,0,1,2.093-1.988,2.122,2.122,0,0,1,1.868,1.3Z" transform="translate(-375.384 -665.724)" fill="#fff"/>
      <path id="Caminho_10" data-name="Caminho 10" d="M425.369,674.559a3.692,3.692,0,1,1,3.693,3.692A3.688,3.688,0,0,1,425.369,674.559Zm1.2-.015a2.5,2.5,0,1,0,2.5-2.6A2.488,2.488,0,0,0,426.565,674.544Z" transform="translate(-402.947 -665.724)" fill="#fff"/>
      <path id="Caminho_11" data-name="Caminho 11" d="M483.416,671.772h-1.2V659.439h1.2Z" transform="translate(-434.296 -659.439)" fill="#fff"/>
      <path id="Caminho_12" data-name="Caminho 12" d="M527.636,675.187c0,1.181.135,2.2,1.585,2.2s1.584-1.016,1.584-2.2V671.27H532v4.051c0,1.869-.7,3.169-2.78,3.169s-2.781-1.3-2.781-3.169V671.27h1.2Z" transform="translate(-458.68 -665.963)" fill="#fff"/>
      <path id="Caminho_13" data-name="Caminho 13" d="M580.92,675.19h-1.2v-5.92h-.733v-1.106h.733v-2.526h1.2v2.526h1.256v1.106H580.92Z" transform="translate(-487.659 -662.857)" fill="#fff"/>
      <path id="Caminho_14" data-name="Caminho 14" d="M626.917,664.324a.852.852,0,1,1-1.7,0,.852.852,0,0,1,1.7,0ZM626.662,674h-1.2V666.97h1.2Z" transform="translate(-513.146 -661.663)" fill="#fff"/>
      <path id="Caminho_15" data-name="Caminho 15" d="M669.4,674.559a3.692,3.692,0,1,1,3.693,3.692A3.688,3.688,0,0,1,669.4,674.559Zm1.2-.015a2.5,2.5,0,1,0,2.5-2.6A2.488,2.488,0,0,0,670.595,674.544Z" transform="translate(-537.512 -665.724)" fill="#fff"/>
      <path id="Caminho_16" data-name="Caminho 16" d="M727.512,671.884h.03a2.357,2.357,0,0,1,2-1.047c1.943,0,2.392,1.405,2.392,3.049v4.171h-1.2V674.1c0-1.136-.09-2.153-1.48-2.153-1.644,0-1.749,1.525-1.749,2.78v3.334h-1.2v-7.026h1.2Z" transform="translate(-568.897 -665.724)" fill="#fff"/>
      <path id="Caminho_17" data-name="Caminho 17" d="M782.825,672.661a1.122,1.122,0,0,0-.957-.717.852.852,0,0,0-.867.777c0,.643.807.882,1.63,1.226a2.14,2.14,0,0,1,1.629,2.018,2.3,2.3,0,0,1-2.376,2.287,2.527,2.527,0,0,1-2.482-1.779l1.062-.448c.3.658.643,1.121,1.435,1.121a1.069,1.069,0,0,0,1.136-1.076c0-1.57-3.169-1.032-3.169-3.244a2,2,0,0,1,2.093-1.988,2.123,2.123,0,0,1,1.869,1.3Z" transform="translate(-598.17 -665.724)" fill="#fff"/>
    </g>
  </g>
</svg>
