<svg xmlns="http://www.w3.org/2000/svg" width="45.8" height="45.8" viewBox="0 0 45.8 45.8">
  <g id="sair" transform="translate(-74.642 -3.198)">
    <path id="Caminho_21" data-name="Caminho 21" d="M120.442,26.1a22.9,22.9,0,1,1-22.9-22.9A22.892,22.892,0,0,1,120.442,26.1Zm-4.432,0A18.468,18.468,0,1,0,97.544,44.566,18.464,18.464,0,0,0,116.01,26.1Zm-14.81,0,5.74,5.744a1.1,1.1,0,0,1,0,1.568L104.856,35.5a1.108,1.108,0,0,1-1.568,0l-5.744-5.744L91.8,35.5a1.113,1.113,0,0,1-1.572,0l-2.084-2.088a1.108,1.108,0,0,1,0-1.568l5.74-5.744-5.74-5.744a1.113,1.113,0,0,1,0-1.572L90.228,16.7a1.113,1.113,0,0,1,1.572,0l5.744,5.744,5.744-5.744a1.108,1.108,0,0,1,1.568,0l2.084,2.084a1.106,1.106,0,0,1,0,1.572Z" transform="translate(0 0)" fill="#fccd2a"/>
  </g>
</svg>
