<svg xmlns="http://www.w3.org/2000/svg" width="45" height="45" viewBox="0 0 45 45">
  <path id="senha" d="M202.367,76.494a15.529,15.529,0,0,1-2.885-.27L197.371,78.6a2.4,2.4,0,0,1-1.576.708h-3.272v3.516a2.11,2.11,0,0,1-2.11,2.11H186.9v3.516a2.109,2.109,0,0,1-2.109,2.11h-9.844a2.11,2.11,0,0,1-2.11-2.11V81.586a2.11,2.11,0,0,1,.618-1.492l14.221-14.221a15.471,15.471,0,1,1,14.693,10.62Zm4.219-15.469a4.219,4.219,0,1,0-4.219-4.219A4.219,4.219,0,0,0,206.585,61.025Z" transform="translate(-172.835 -45.556)" fill="#fccd2a"/>
</svg>
