<svg xmlns="http://www.w3.org/2000/svg" width="50" height="50" viewBox="0 0 50 50">
  <path id="usuario" d="M140.363,71.886a25,25,0,1,1-25-25A25,25,0,0,1,140.363,71.886Zm-4.838,0A20.162,20.162,0,1,0,98.962,83.57a13.4,13.4,0,0,1,10.6-5.232c1.028,0,2.631.968,5.807.968s4.778-.968,5.806-.968a13.369,13.369,0,0,1,10.595,5.232A20.019,20.019,0,0,0,135.525,71.886Zm-7.047,15.282a8.712,8.712,0,0,0-7.016-3.982,20.186,20.186,0,0,1-6.1.968,20.5,20.5,0,0,1-6.1-.968,8.686,8.686,0,0,0-7.016,3.982,20.066,20.066,0,0,0,26.23,0Zm-3.438-20.927a9.678,9.678,0,1,1-9.677-9.678A9.68,9.68,0,0,1,125.041,66.241Zm-4.839,0a4.839,4.839,0,1,0-4.839,4.839A4.84,4.84,0,0,0,120.2,66.241Z" transform="translate(-90.363 -46.886)" fill="#fccd2a"/>
</svg>
